<svg xmlns="http://www.w3.org/2000/svg" data-name="23 Beekeeper " viewBox="0 0 512 640" x="0px" y="0px"><rect x="104" y="80" width="304" height="32" rx="8" ry="8"/><path d="m144.33,297.08c25.18,12.69,64.22,28.72,103.67,30.71v-27.26l-33.33-20-70.34,16.55Z"/><path d="m288,240.47c-9.65,4.81-20.51,7.53-32,7.53s-22.35-2.72-32-7.53v27l32,19.2,32-19.2v-27Z"/><path d="m264,327.83c43.26-1.8,81.36-17.72,105.2-30.38l-71.87-16.91-33.33,20v27.3Z"/><path d="m72,368v136c0,4.42,3.58,8,8,8h40v-80c0-4.42,3.58-8,8-8s8,3.58,8,8v80h112v-168.19c-56.05-2.53-109.67-30.72-130.93-43.26-24.2,12.68-45.07,41.18-45.07,67.45Z"/><path d="m395.4,300.81c-20.14,12.89-70.37,40.75-131.4,43.04v168.15h112v-80c0-4.42,3.58-8,8-8s8,3.58,8,8v80h40c4.42,0,8-3.58,8-8v-136c0-26.1-20.6-54.39-44.6-67.19Z"/><path d="m324.67,30.55c-3.54-17.7-19.21-30.55-37.26-30.55h-62.81c-18.05,0-33.72,12.85-37.26,30.55l-6.69,33.45h150.72l-6.69-33.45Z"/><path d="m128,128v156.49l80-18.82v-33.66c0-.74.11-1.45.3-2.13-14.89-13.2-24.3-32.45-24.3-53.87v-48h-56Z"/><path d="m384,128h-56v48c0,21.42-9.41,40.67-24.3,53.87.19.68.3,1.39.3,2.13v33.66l80,18.82v-156.49Z"/><path d="m256,232c30.88,0,56-25.12,56-56v-48h-112v48c0,30.88,25.12,56,56,56Z"/><circle cx="440" cy="144" r="16"/><path d="m470.99,136h32.58c5.2-5.09,8.43-12.17,8.43-20,0-10.28-9.72-20-20-20-14.24,0-26.26,7.27-34.84,21.01,6.74,4.3,11.78,11.05,13.83,18.99Z"/><path d="m470.99,152c-2.05,7.94-7.09,14.69-13.83,18.99,8.58,13.74,20.6,21.01,34.84,21.01,10.28,0,20-9.72,20-20,0-7.83-3.23-14.91-8.43-20h-32.58Z"/><path d="m443.31,235.31c6.25-6.25,6.25-16.38,0-22.63-6.25-6.25-16.38-6.25-22.63,0-6.25,6.25-6.25,16.38,0,22.63,6.25,6.25,16.38,6.25,22.63,0Z"/><path d="m463.22,217.05c1.73,7.81.51,16.14-3.65,23.2l23.04,23.04c7.27.08,14.57-2.64,20.1-8.18,7.27-7.27,7.27-21.02,0-28.28-10.07-10.07-23.71-13.43-39.49-9.78Z"/><path d="m425.05,255.22c-3.65,15.78-.29,29.42,9.78,39.49,7.27,7.27,21.02,7.27,28.28,0,5.54-5.54,8.26-12.83,8.18-20.1l-23.04-23.04c-7.06,4.16-15.4,5.37-23.2,3.65Z"/><circle cx="72" cy="144" r="16"/><path d="m41.01,136c2.05-7.94,7.09-14.69,13.83-18.99-8.58-13.74-20.6-21.01-34.84-21.01-10.28,0-20,9.72-20,20,0,7.83,3.23,14.91,8.43,20h32.58Z"/><path d="m20,192c14.24,0,26.26-7.27,34.84-21.01-6.74-4.3-11.78-11.05-13.83-18.99H8.43c-5.2,5.09-8.43,12.17-8.43,20,0,10.28,9.72,20,20,20Z"/><path d="m68.69,212.69c-6.25,6.25-6.25,16.38,0,22.63,6.25,6.25,16.38,6.25,22.63,0,6.25-6.25,6.25-16.38,0-22.63-6.25-6.25-16.38-6.25-22.63,0Z"/><path d="m48.78,217.05c-15.78-3.65-29.42-.29-39.49,9.78-7.27,7.27-7.27,21.02,0,28.28,5.54,5.54,12.83,8.26,20.1,8.18l23.04-23.04c-4.16-7.06-5.37-15.4-3.65-23.2Z"/><path d="m86.95,255.22c-7.81,1.72-16.14.51-23.2-3.65l-23.04,23.04c-.08,7.27,2.64,14.57,8.18,20.1,7.27,7.27,21.02,7.27,28.28,0,10.07-10.07,13.43-23.71,9.78-39.49Z"/><text x="0" y="527" fill="#000000" font-size="5px" font-weight="bold" font-family="'Helvetica Neue', Helvetica, Arial-Unicode, Arial, Sans-serif">Created by Edy Subiyanto</text><text x="0" y="532" fill="#000000" font-size="5px" font-weight="bold" font-family="'Helvetica Neue', Helvetica, Arial-Unicode, Arial, Sans-serif">from the Noun Project</text></svg>