<svg xmlns="http://www.w3.org/2000/svg" viewBox="0 0 64 80" x="0px" y="0px"><title>Honey-Bee-Honeycomb-Farm</title><path d="M44.485,49.309a3.362,3.362,0,0,0,3.5-3.4V26.962l-5-2.885v-5.77l-6-3.462L32,17.73l-5-2.885-6,3.462v5.77L18,25.813V12H16V27.5h.01v6.386l5,2.885V48.2a3.361,3.361,0,0,0,3.5,3.4,3.352,3.352,0,0,0,3.5-3.4V45.82c0-.131-.011-.26-.02-.389L32,43.118,37,46l3.986-2.3v2.2A3.352,3.352,0,0,0,44.485,49.309Zm1.5-3.409a1.364,1.364,0,0,1-1.5,1.409,1.35,1.35,0,0,1-1.5-1.4V35.833a3.621,3.621,0,0,1,3.007-3.564ZM32,25.809l2,1.154,2,1.154v4.615l-4,2.307-4-2.307V28.116l2-1.154Zm6,8.077V32.269a3.615,3.615,0,0,1,2.985,3.563v2.39a1.716,1.716,0,0,1-.406,1.039,1.442,1.442,0,0,1-1.075.356,1.356,1.356,0,0,1-1.5-1.4Zm3-14.424v4.615l-4,2.307-2-1.154-2-1.154V19.462l4-2.307ZM18.01,28.117l4-2.307,4,2.307v4.615l-4,2.307-4-2.307Zm8,20.083a1.357,1.357,0,0,1-1.5,1.4,1.356,1.356,0,0,1-1.5-1.4V42.256a3.621,3.621,0,0,1,3.007,3.564ZM37,43.694l-4-2.307V36.771l3-1.73v3.176a3.361,3.361,0,0,0,3.5,3.4,3.79,3.79,0,0,0,1.482-.284v.059Z"/><path d="M42.384,50.489H40.992v6.2a3.505,3.505,0,0,0,7.008,0V56.1A5.622,5.622,0,0,0,42.384,50.489ZM46,56.671a1.507,1.507,0,0,1-3.008.01V52.541A3.621,3.621,0,0,1,46,56.1Z"/><path d="M17.628,38.071l-2.557,1.023.823-1.647-1.789-.895-1.758,3.515a2.8,2.8,0,0,0-2.216,2.07A4.856,4.856,0,0,0,7.507,41a3.472,3.472,0,0,0-2.726,5.626A3.476,3.476,0,0,0,9.8,51.307h.229A2.9,2.9,0,0,0,12,53.838V56h2V53.838A2.961,2.961,0,0,0,16,51V43a3.248,3.248,0,0,0-.623-1.873l3-1.2ZM13,42a.915.915,0,0,1,1,1v1H12v-.988A.919.919,0,0,1,13,42ZM7.507,43A5.976,5.976,0,0,1,10,44.609v.251a11.913,11.913,0,0,0-3.621.552,1.459,1.459,0,0,1-.347-.937A1.477,1.477,0,0,1,7.507,43Zm1.5,6.307-.293.292A1.475,1.475,0,0,1,6.2,48.557a1.463,1.463,0,0,1,.433-1.043A7.4,7.4,0,0,1,10,46.862v2.445ZM13,52a.915.915,0,0,1-1-1V50h2v.992A.918.918,0,0,1,13,52Z"/><path d="M53.8,9.3V9a3.282,3.282,0,0,0-.292-1.294l2-2L54.1,4.293,52.119,6.271a3.33,3.33,0,0,0-2.63,0L47.511,4.293,46.1,5.707l2,2A3.282,3.282,0,0,0,47.8,9v.3c-1.2.019-3.74.193-4.786,1.239A3.475,3.475,0,0,0,47.6,15.75h.2V17a2.961,2.961,0,0,0,2,2.838V22h2V19.838A2.961,2.961,0,0,0,53.8,17V15.75h.2a3.475,3.475,0,0,0,4.582-5.207C57.544,9.5,55,9.325,53.8,9.3Zm-4-.292A1,1,0,1,1,51.8,9v1h-2V9.012ZM46.811,13.75l-.293.292A1.475,1.475,0,0,1,44,13a1.463,1.463,0,0,1,.433-1.043A7.4,7.4,0,0,1,47.8,11.3V13.75ZM50.8,18a.915.915,0,0,1-1-1V16h2v.992A.918.918,0,0,1,50.8,18Zm6.372-3.958a1.476,1.476,0,0,1-2.086,0L54.8,13.75H53.8V11.3a7.378,7.378,0,0,1,3.372.652A1.477,1.477,0,0,1,57.175,14.042Z"/><rect x="37" y="49" width="2" height="7"/><rect x="37" y="58" width="2" height="2"/><rect x="50" y="39" width="2" height="7"/><rect x="50" y="48" width="2" height="2"/><rect x="12" y="23" width="2" height="7"/><rect x="12" y="32" width="2" height="2"/><rect x="54" y="24" width="2" height="18"/><text x="0" y="79" fill="#000000" font-size="5px" font-weight="bold" font-family="'Helvetica Neue', Helvetica, Arial-Unicode, Arial, Sans-serif">Created by Ninejipjip</text><text x="0" y="84" fill="#000000" font-size="5px" font-weight="bold" font-family="'Helvetica Neue', Helvetica, Arial-Unicode, Arial, Sans-serif">from the Noun Project</text></svg>