<!DOCTYPE svg PUBLIC "-//W3C//DTD SVG 1.1//EN" "http://www.w3.org/Graphics/SVG/1.1/DTD/svg11.dtd">
<!-- Uploaded to: SVG Repo, www.svgrepo.com, Transformed by: SVG Repo Mixer Tools -->
<svg fill="#fccb05" height="64px" width="64px" version="1.1" id="Layer_1" xmlns="http://www.w3.org/2000/svg" xmlns:xlink="http://www.w3.org/1999/xlink" viewBox="0 0 512 512" xml:space="preserve" stroke="#fccb05">
<g id="SVGRepo_bgCarrier" stroke-width="0"/>
<g id="SVGRepo_tracerCarrier" stroke-linecap="round" stroke-linejoin="round"/>
<g id="SVGRepo_iconCarrier"> <g> <g> <g> <path d="M315.733,128c4.719,0,8.533-3.823,8.533-8.533V8.533c0-4.71-3.814-8.533-8.533-8.533S307.2,3.823,307.2,8.533v110.933 C307.2,124.177,311.014,128,315.733,128z"/> <path d="M418.133,128c4.719,0,8.533-3.823,8.533-8.533V8.533c0-4.71-3.814-8.533-8.533-8.533c-4.719,0-8.533,3.823-8.533,8.533 v110.933C409.6,124.177,413.414,128,418.133,128z"/> <path d="M366.933,136.533c4.719,0,8.533-3.823,8.533-8.533V8.533c0-4.71-3.814-8.533-8.533-8.533S358.4,3.823,358.4,8.533V128 C358.4,132.71,362.214,136.533,366.933,136.533z"/> <path d="M196.267,307.2H153.6V17.067C153.6,7.654,145.946,0,136.533,0h-17.067C110.054,0,102.4,7.654,102.4,17.067V281.6 c0,4.71,3.814,8.533,8.533,8.533c4.719,0,8.533-3.823,8.533-8.533V17.067h17.067V307.2h-76.8c-14.114,0-25.6,11.486-25.6,25.6 v68.267c0,62.31,26.59,94.379,91.802,110.677c0.674,0.171,1.374,0.256,2.065,0.256c0.913,0,1.826-0.145,2.697-0.435 c58.795-19.601,91.17-58.837,91.17-110.498V332.8C221.867,318.686,210.381,307.2,196.267,307.2z M204.8,401.067 c0,50.338-34.884,76.544-68.267,90.129V384c0-4.71-3.814-8.533-8.533-8.533s-8.533,3.823-8.533,8.533v108.203 C63.053,475.068,51.2,444.39,51.2,401.067V332.8c0-4.702,3.823-8.533,8.533-8.533h136.533c4.71,0,8.533,3.831,8.533,8.533 V401.067z"/> <path d="M469.333,0c-4.719,0-8.533,3.823-8.533,8.533v85.333c0,37.965-21.777,59.733-59.733,59.733H332.8 c-37.956,0-59.733-21.769-59.733-59.733V8.533c0-4.71-3.814-8.533-8.533-8.533S256,3.823,256,8.533v85.333 c0,47.369,29.423,76.8,76.8,76.8h42.667v324.267H358.4V196.267c0-4.71-3.814-8.533-8.533-8.533c-4.719,0-8.533,3.823-8.533,8.533 v298.667c0,9.412,7.654,17.067,17.067,17.067h17.067c9.404,0,17.067-7.654,17.067-17.067V170.667h8.533 c47.377,0,76.8-29.431,76.8-76.8V8.533C477.867,3.823,474.052,0,469.333,0z"/> </g> </g> </g> </g>
</svg>